<svg width="40" height="40" viewBox="0 0 40 40" fill="none" xmlns="http://www.w3.org/2000/svg">
<circle cx="20" cy="20" r="20" fill="#6A90FF"/>
<path d="M30.5014 14.009C30.0523 13.5385 29.432 13.2605 28.7262 13.2605H25.1759V13.2177C25.1759 12.683 24.962 12.1697 24.5984 11.8275C24.2348 11.4639 23.7429 11.25 23.2082 11.25H16.7918C16.2357 11.25 15.7438 11.4639 15.3802 11.8275C15.0166 12.1911 14.8028 12.683 14.8028 13.2177V13.2605H11.2738C10.568 13.2605 9.94772 13.5385 9.49857 14.009C9.04943 14.4582 8.75 15.0998 8.75 15.7842V26.4354C8.75 27.1412 9.02804 27.7614 9.49857 28.2106C9.94772 28.6597 10.5894 28.9591 11.2738 28.9591H28.7262C29.432 28.9591 30.0523 28.6811 30.5014 28.2106C30.9506 27.7614 31.25 27.1198 31.25 26.4354V15.7842C31.25 15.0784 30.972 14.4582 30.5014 14.009ZM30.1378 26.4354H30.1164C30.1164 26.8203 29.9667 27.1625 29.7101 27.4192C29.4534 27.6759 29.1112 27.8256 28.7262 27.8256H11.2738C10.8888 27.8256 10.5466 27.6759 10.2899 27.4192C10.0333 27.1625 9.88356 26.8203 9.88356 26.4354V15.7842C9.88356 15.3992 10.0333 15.057 10.2899 14.8004C10.5466 14.5437 10.8888 14.394 11.2738 14.394H15.4016C15.7224 14.394 15.9791 14.1374 15.9791 13.8165V13.1963C15.9791 12.961 16.0646 12.7471 16.2144 12.5974C16.3641 12.4477 16.5779 12.3622 16.8132 12.3622H23.2082C23.4434 12.3622 23.6573 12.4477 23.807 12.5974C23.9567 12.7471 24.0423 12.961 24.0423 13.1963V13.8165C24.0423 14.1374 24.299 14.394 24.6198 14.394H28.7476C29.1326 14.394 29.4748 14.5437 29.7315 14.8004C29.9881 15.057 30.1378 15.3992 30.1378 15.7842V26.4354Z" fill="white" stroke="white" stroke-width="0.5"/>
<path d="M19.9999 15.8484C18.5456 15.8484 17.2195 16.4472 16.2784 17.3883C15.316 18.3508 14.7385 19.6554 14.7385 21.1098C14.7385 22.5642 15.3374 23.8902 16.2784 24.8313C17.2409 25.7937 18.5456 26.3712 19.9999 26.3712C21.4543 26.3712 22.7804 25.7723 23.7214 24.8313C24.6839 23.8688 25.2613 22.5642 25.2613 21.1098C25.2613 19.6554 24.6625 18.3294 23.7214 17.3883C22.7804 16.4472 21.4543 15.8484 19.9999 15.8484ZM22.9087 24.0399C22.1601 24.7671 21.1335 25.2376 19.9999 25.2376C18.8664 25.2376 17.8398 24.7671 17.0912 24.0399C16.3426 23.2914 15.8935 22.2647 15.8935 21.1312C15.8935 19.9976 16.364 18.971 17.0912 18.2224C17.8398 17.4739 18.8664 17.0247 19.9999 17.0247C21.1335 17.0247 22.1601 17.4953 22.9087 18.2224C23.6573 18.971 24.1064 19.9976 24.1064 21.1312C24.1278 22.2647 23.6573 23.2914 22.9087 24.0399Z" fill="white" stroke="white" stroke-width="0.5"/>
<path d="M27.6145 17.9229C28.1933 17.9229 28.6625 17.4537 28.6625 16.8749C28.6625 16.2961 28.1933 15.8269 27.6145 15.8269C27.0357 15.8269 26.5665 16.2961 26.5665 16.8749C26.5665 17.4537 27.0357 17.9229 27.6145 17.9229Z" fill="white" stroke="white" stroke-width="0.5"/>
</svg>
