<svg width="24" height="24" viewBox="0 0 24 24" fill="none" xmlns="http://www.w3.org/2000/svg">
<path d="M20.35 21.0625H8.7125C8.319 21.0625 8 20.7435 8 20.35V8.7125C8 8.319 8.319 8 8.7125 8H20.35C20.7435 8 21.0625 8.319 21.0625 8.7125V20.35C21.0625 20.7435 20.7435 21.0625 20.35 21.0625Z" stroke="white" stroke-width="1.5" stroke-linecap="round" stroke-linejoin="round"/>
<path d="M14.9645 17.9295C14.7218 17.9295 14.5254 17.7523 14.5254 17.5336V12.3959C14.5254 12.1772 14.7218 12 14.9645 12C15.2072 12 15.4036 12.1772 15.4036 12.3959V17.5336C15.4036 17.7523 15.2072 17.9296 14.9645 17.9296V17.9295Z" fill="white" stroke="white" stroke-width="0.7"/>
<path d="M12.0002 14.9647C12.0002 14.722 12.1774 14.5256 12.3961 14.5256L17.5338 14.5256C17.7525 14.5256 17.9297 14.722 17.9297 14.9647C17.9297 15.2075 17.7525 15.4039 17.5338 15.4039L12.3961 15.4039C12.1774 15.4039 12.0001 15.2075 12.0001 14.9647L12.0002 14.9647Z" fill="white" stroke="white" stroke-width="0.7"/>
<path d="M15.0625 7.9375V2.7125C15.0625 2.319 14.7435 2 14.35 2H2.7125C2.319 2 2 2.319 2 2.7125V14.35C2 14.7435 2.319 15.0625 2.7125 15.0625H7.9375" stroke="white" stroke-width="1.5" stroke-linecap="round" stroke-linejoin="round"/>
</svg>
