<svg width="32" height="32" viewBox="0 0 32 32" fill="none" xmlns="http://www.w3.org/2000/svg">
<rect width="32" height="32" rx="16" fill="#6A90FF"/>
<path d="M19.0426 24H13.0833C12.2141 24 11.4954 23.3674 11.4478 22.5596L10.8745 12.891C10.8689 12.7995 10.9043 12.71 10.9717 12.6434C11.0395 12.577 11.1337 12.5392 11.2319 12.5392H20.8934C20.9917 12.5392 21.0858 12.5769 21.1536 12.6434C21.2211 12.71 21.2565 12.7995 21.2508 12.891L20.6775 22.5596C20.6301 23.3674 19.9117 24 19.0426 24ZM11.6106 13.206L12.1629 22.5226C12.1898 22.9771 12.594 23.3331 13.0834 23.3331H19.0427C19.5317 23.3331 19.936 22.9771 19.9629 22.5225L20.5151 13.2058L11.6106 13.206Z" fill="white"/>
<path d="M21.2371 13.205H10.9982C10.4477 13.205 10 12.7884 10 12.2761V11.4005C10 10.8883 10.4477 10.4715 10.9982 10.4715H21.2371C21.7876 10.4715 22.2353 10.8882 22.2353 11.4005V12.2761C22.2352 12.7884 21.7876 13.205 21.2371 13.205ZM10.9982 11.1383C10.843 11.1383 10.7163 11.2559 10.7163 11.4005V12.2761C10.7163 12.4206 10.843 12.5384 10.9982 12.5384H21.2371C21.3952 12.5384 21.519 12.4231 21.519 12.2761V11.4005C21.519 11.2535 21.3952 11.1383 21.2371 11.1383H10.9982Z" fill="white"/>
<path d="M17.3178 11.1383H14.9181C14.8156 11.1383 14.718 11.0974 14.6502 11.0261C14.334 10.6942 14.1598 10.2667 14.1598 9.8222C14.1598 8.81758 15.0381 8 16.1178 8C17.1975 8 18.0758 8.81758 18.0758 9.82232C18.0758 10.2666 17.902 10.6942 17.5862 11.0261C17.5178 11.0976 17.4203 11.1383 17.3178 11.1383ZM15.0919 10.4717H17.1439C17.2838 10.2817 17.3593 10.0557 17.3593 9.82236C17.3595 9.18504 16.8023 8.66672 16.1178 8.66672C15.4333 8.66672 14.8761 9.18517 14.8761 9.82236C14.8761 10.0558 14.9521 10.2818 15.0919 10.4717Z" fill="white"/>
<path d="M17.3498 21.1271C17.1518 21.1271 16.9916 20.9779 16.9916 20.7938V16.4673C16.9916 16.2831 17.1518 16.1339 17.3498 16.1339C17.5478 16.1339 17.708 16.2831 17.708 16.4673V20.7938C17.708 20.9779 17.5478 21.1271 17.3498 21.1271Z" fill="white"/>
<path d="M14.7279 21.1271C14.5299 21.1271 14.3697 20.9779 14.3697 20.7938V16.4673C14.3697 16.2831 14.5299 16.1339 14.7279 16.1339C14.9259 16.1339 15.0861 16.2831 15.0861 16.4673V20.7938C15.0861 20.9779 14.9259 21.1271 14.7279 21.1271Z" fill="white"/>
<path d="M19.0426 24H13.0833C12.2141 24 11.4954 23.3674 11.4478 22.5596L10.8745 12.891C10.8689 12.7995 10.9043 12.71 10.9717 12.6434C11.0395 12.577 11.1337 12.5392 11.2319 12.5392H20.8934C20.9917 12.5392 21.0858 12.5769 21.1536 12.6434C21.2211 12.71 21.2565 12.7995 21.2508 12.891L20.6775 22.5596C20.6301 23.3674 19.9117 24 19.0426 24ZM11.6106 13.206L12.1629 22.5226C12.1898 22.9771 12.594 23.3331 13.0834 23.3331H19.0427C19.5317 23.3331 19.936 22.9771 19.9629 22.5225L20.5151 13.2058L11.6106 13.206Z" stroke="white" stroke-width="0.4"/>
<path d="M21.2371 13.205H10.9982C10.4477 13.205 10 12.7884 10 12.2761V11.4005C10 10.8883 10.4477 10.4715 10.9982 10.4715H21.2371C21.7876 10.4715 22.2353 10.8882 22.2353 11.4005V12.2761C22.2352 12.7884 21.7876 13.205 21.2371 13.205ZM10.9982 11.1383C10.843 11.1383 10.7163 11.2559 10.7163 11.4005V12.2761C10.7163 12.4206 10.843 12.5384 10.9982 12.5384H21.2371C21.3952 12.5384 21.519 12.4231 21.519 12.2761V11.4005C21.519 11.2535 21.3952 11.1383 21.2371 11.1383H10.9982Z" stroke="white" stroke-width="0.4"/>
<path d="M17.3178 11.1383H14.9181C14.8156 11.1383 14.718 11.0974 14.6502 11.0261C14.334 10.6942 14.1598 10.2667 14.1598 9.8222C14.1598 8.81758 15.0381 8 16.1178 8C17.1975 8 18.0758 8.81758 18.0758 9.82232C18.0758 10.2666 17.902 10.6942 17.5862 11.0261C17.5178 11.0976 17.4203 11.1383 17.3178 11.1383ZM15.0919 10.4717H17.1439C17.2838 10.2817 17.3593 10.0557 17.3593 9.82236C17.3595 9.18504 16.8023 8.66672 16.1178 8.66672C15.4333 8.66672 14.8761 9.18517 14.8761 9.82236C14.8761 10.0558 14.9521 10.2818 15.0919 10.4717Z" stroke="white" stroke-width="0.4"/>
<path d="M17.3498 21.1271C17.1518 21.1271 16.9916 20.9779 16.9916 20.7938V16.4673C16.9916 16.2831 17.1518 16.1339 17.3498 16.1339C17.5478 16.1339 17.708 16.2831 17.708 16.4673V20.7938C17.708 20.9779 17.5478 21.1271 17.3498 21.1271Z" stroke="white" stroke-width="0.4"/>
<path d="M14.7279 21.1271C14.5299 21.1271 14.3697 20.9779 14.3697 20.7938V16.4673C14.3697 16.2831 14.5299 16.1339 14.7279 16.1339C14.9259 16.1339 15.0861 16.2831 15.0861 16.4673V20.7938C15.0861 20.9779 14.9259 21.1271 14.7279 21.1271Z" stroke="white" stroke-width="0.4"/>
</svg>
