<svg width="16" height="20" viewBox="0 0 16 20" fill="none" xmlns="http://www.w3.org/2000/svg">
<path d="M11.5857 19.4999H4.27981C3.21432 19.4999 2.33312 18.7487 2.27482 17.7894L1.57199 6.30795C1.56515 6.19926 1.60847 6.09301 1.69112 6.0139C1.77426 5.93508 1.88973 5.89014 2.01013 5.89014H13.8547C13.9753 5.89014 14.0906 5.93493 14.1737 6.0139C14.2565 6.09301 14.2999 6.19926 14.2929 6.30795L13.59 17.7894C13.5319 18.7487 12.6512 19.4999 11.5857 19.4999H11.5857ZM2.47444 6.68194L3.15145 17.7455C3.18442 18.2853 3.68005 18.7079 4.28001 18.7079H11.5859C12.1854 18.7079 12.681 18.2853 12.714 17.7454L13.391 6.6818L2.47444 6.68194Z" fill="white" stroke="white" stroke-width="0.7"/>
<path d="M14.2762 6.68086H1.7238C1.04883 6.68086 0.5 6.18608 0.5 5.57773V4.53794C0.5 3.92974 1.04883 3.43481 1.7238 3.43481H14.2762C14.9512 3.43481 15.5 3.92959 15.5 4.53794V5.57773C15.4998 6.18608 14.951 6.68086 14.276 6.68086H14.2762ZM1.7238 4.22654C1.53348 4.22654 1.3782 4.36624 1.3782 4.53796V5.57776C1.3782 5.74933 1.53348 5.88918 1.7238 5.88918H14.2762C14.47 5.88918 14.6218 5.75235 14.6218 5.57776V4.53796C14.6218 4.36337 14.47 4.22654 14.2762 4.22654H1.7238Z" fill="white" stroke="white" stroke-width="0.7"/>
<path d="M9.47116 4.22674H6.52923C6.40358 4.22674 6.28397 4.17821 6.20083 4.0935C5.81318 3.69936 5.59961 3.19169 5.59961 2.66387C5.59961 1.47088 6.67639 0.5 8.00004 0.5C9.3237 0.5 10.4005 1.47088 10.4005 2.66401C10.4005 3.19165 10.1874 3.69936 9.8002 4.0935C9.71642 4.17835 9.59682 4.22674 9.47116 4.22674ZM6.74231 3.43519H9.25804C9.42957 3.20949 9.52211 2.94116 9.52211 2.66405C9.52227 1.90724 8.83918 1.29173 8.00002 1.29173C7.16085 1.29173 6.47776 1.90739 6.47776 2.66405C6.47776 2.9413 6.57094 3.20966 6.7423 3.43519H6.74231Z" fill="white" stroke="white" stroke-width="0.7"/>
<path d="M9.5104 16.0884C9.26768 16.0884 9.07129 15.9113 9.07129 15.6926V10.5548C9.07129 10.3361 9.26766 10.1589 9.5104 10.1589C9.75314 10.1589 9.94951 10.3361 9.94951 10.5548V15.6926C9.94951 15.9112 9.75314 16.0885 9.5104 16.0885V16.0884Z" fill="white" stroke="white" stroke-width="0.7"/>
<path d="M6.29653 16.0884C6.05381 16.0884 5.85742 15.9113 5.85742 15.6926V10.5548C5.85742 10.3361 6.05379 10.1589 6.29653 10.1589C6.53927 10.1589 6.73565 10.3361 6.73565 10.5548V15.6926C6.73565 15.9112 6.53927 16.0885 6.29653 16.0885V16.0884Z" fill="white" stroke="white" stroke-width="0.7"/>
</svg>
