<svg width="80" height="80" viewBox="0 0 80 80" fill="none" xmlns="http://www.w3.org/2000/svg">
<g clip-path="url(#clip0_3169_2861)">
<circle cx="53.086" cy="42.088" r="26.088" fill="#F1F1FF"/>
<path d="M55.2128 80H25.4163C21.0707 80 17.4768 76.837 17.239 72.7981L14.3726 24.4551C14.3447 23.9975 14.5214 23.5501 14.8585 23.217C15.1976 22.8851 15.6685 22.6959 16.1595 22.6959H64.4669C64.9586 22.6959 65.4289 22.8845 65.7679 23.217C66.1057 23.5501 66.2824 23.9975 66.2538 24.4551L63.3874 72.7981C63.1503 76.8371 59.5583 80 55.2128 80ZM18.0532 26.0298L20.8143 72.6132C20.9488 74.8857 22.9702 76.6655 25.4171 76.6655H55.2136C57.6585 76.6655 59.6799 74.8857 59.8144 72.6126L62.5756 26.0292L18.0532 26.0298Z" fill="#5557D4"/>
<path d="M66.1853 26.0252H14.9912C12.2384 26.0252 10 23.942 10 21.3805V17.0025C10 14.4416 12.2384 12.3577 14.9912 12.3577H66.1853C68.9381 12.3577 71.1765 14.441 71.1765 17.0025V21.3805C71.1758 23.942 68.9381 26.0252 66.1853 26.0252ZM14.9912 15.6913C14.215 15.6913 13.5817 16.2795 13.5817 17.0026V21.3806C13.5817 22.1031 14.215 22.6919 14.9912 22.6919H66.1853C66.9758 22.6919 67.5948 22.1157 67.5948 21.3806V17.0026C67.5948 16.2674 66.9758 15.6913 66.1853 15.6913H14.9912Z" fill="#5557D4"/>
<path d="M46.5888 15.6915H34.5904C34.0779 15.6915 33.5901 15.4872 33.251 15.1305C31.67 13.471 30.799 11.3334 30.799 9.111C30.799 4.08789 35.1906 0 40.589 0C45.9874 0 50.379 4.08789 50.379 9.11162C50.379 11.3332 49.5099 13.471 47.9308 15.1305C47.5891 15.4878 47.1013 15.6915 46.5888 15.6915ZM35.4594 12.3587H45.7197C46.4192 11.4084 46.7966 10.2785 46.7966 9.11178C46.7973 5.92522 44.0113 3.33358 40.5889 3.33358C37.1664 3.33358 34.3805 5.92584 34.3805 9.11178C34.3805 10.2791 34.7605 11.4091 35.4594 12.3587Z" fill="#5557D4"/>
<path d="M46.7489 65.6357C45.759 65.6357 44.958 64.8897 44.958 63.9689V42.3363C44.958 41.4156 45.7589 40.6695 46.7489 40.6695C47.7389 40.6695 48.5398 41.4155 48.5398 42.3363V63.9689C48.5398 64.8896 47.7389 65.6357 46.7489 65.6357Z" fill="#5557D4"/>
<path d="M33.6396 65.6357C32.6497 65.6357 31.8487 64.8897 31.8487 63.9689V42.3363C31.8487 41.4156 32.6496 40.6695 33.6396 40.6695C34.6296 40.6695 35.4305 41.4155 35.4305 42.3363V63.9689C35.4305 64.8896 34.6296 65.6357 33.6396 65.6357Z" fill="#5557D4"/>
<path d="M55.2128 80H25.4163C21.0707 80 17.4768 76.837 17.239 72.7981L14.3726 24.4551C14.3447 23.9975 14.5214 23.5501 14.8585 23.217C15.1976 22.8851 15.6685 22.6959 16.1595 22.6959H64.4669C64.9586 22.6959 65.4289 22.8845 65.7679 23.217C66.1057 23.5501 66.2824 23.9975 66.2538 24.4551L63.3874 72.7981C63.1503 76.8371 59.5583 80 55.2128 80ZM18.0532 26.0298L20.8143 72.6132C20.9488 74.8857 22.9702 76.6655 25.4171 76.6655H55.2136C57.6585 76.6655 59.6799 74.8857 59.8144 72.6126L62.5756 26.0292L18.0532 26.0298Z" stroke="#5557D4" stroke-width="0.4"/>
<path d="M66.1853 26.0252H14.9912C12.2384 26.0252 10 23.942 10 21.3805V17.0025C10 14.4416 12.2384 12.3577 14.9912 12.3577H66.1853C68.9381 12.3577 71.1765 14.441 71.1765 17.0025V21.3805C71.1758 23.942 68.9381 26.0252 66.1853 26.0252ZM14.9912 15.6913C14.215 15.6913 13.5817 16.2795 13.5817 17.0026V21.3806C13.5817 22.1031 14.215 22.6919 14.9912 22.6919H66.1853C66.9758 22.6919 67.5948 22.1157 67.5948 21.3806V17.0026C67.5948 16.2674 66.9758 15.6913 66.1853 15.6913H14.9912Z" stroke="#5557D4" stroke-width="0.4"/>
<path d="M46.5888 15.6915H34.5904C34.0779 15.6915 33.5901 15.4872 33.251 15.1305C31.67 13.471 30.799 11.3334 30.799 9.111C30.799 4.08789 35.1906 0 40.589 0C45.9874 0 50.379 4.08789 50.379 9.11162C50.379 11.3332 49.5099 13.471 47.9308 15.1305C47.5891 15.4878 47.1013 15.6915 46.5888 15.6915ZM35.4594 12.3587H45.7197C46.4192 11.4084 46.7966 10.2785 46.7966 9.11178C46.7973 5.92522 44.0113 3.33358 40.5889 3.33358C37.1664 3.33358 34.3805 5.92584 34.3805 9.11178C34.3805 10.2791 34.7605 11.4091 35.4594 12.3587Z" stroke="#5557D4" stroke-width="0.4"/>
<path d="M46.7489 65.6357C45.759 65.6357 44.958 64.8897 44.958 63.9689V42.3363C44.958 41.4156 45.7589 40.6695 46.7489 40.6695C47.7389 40.6695 48.5398 41.4155 48.5398 42.3363V63.9689C48.5398 64.8896 47.7389 65.6357 46.7489 65.6357Z" stroke="#5557D4" stroke-width="0.4"/>
<path d="M33.6396 65.6357C32.6497 65.6357 31.8487 64.8897 31.8487 63.9689V42.3363C31.8487 41.4156 32.6496 40.6695 33.6396 40.6695C34.6296 40.6695 35.4305 41.4155 35.4305 42.3363V63.9689C35.4305 64.8896 34.6296 65.6357 33.6396 65.6357Z" stroke="#5557D4" stroke-width="0.4"/>
</g>
<defs>
<clipPath id="clip0_3169_2861">
<rect width="80" height="80" fill="white"/>
</clipPath>
</defs>
</svg>
