<svg width="49" height="16" viewBox="0 0 49 16" fill="none" xmlns="http://www.w3.org/2000/svg">
<rect width="49" height="16" rx="8" fill="#E2E3FF"/>
<path d="M10.78 3.6H14.116C15.268 3.6 16.228 4.004 16.996 4.812C17.772 5.612 18.16 6.608 18.16 7.8C18.16 8.992 17.772 9.988 16.996 10.788C16.228 11.596 15.268 12 14.116 12H10.78V3.6ZM12.436 10.416H14.116C14.844 10.416 15.436 10.176 15.892 9.696C16.348 9.2 16.576 8.568 16.576 7.8C16.576 7.024 16.348 6.396 15.892 5.916C15.436 5.428 14.844 5.184 14.116 5.184H12.436V10.416ZM20.8107 6V7.032C20.9467 6.656 21.1787 6.372 21.5067 6.18C21.8347 5.98 22.2107 5.88 22.6347 5.88V7.608C22.1627 7.544 21.7387 7.64 21.3627 7.896C20.9947 8.144 20.8107 8.556 20.8107 9.132V12H19.2627V6H20.8107ZM27.8774 6.708V6H29.4254V12H27.8774V11.292C27.4134 11.876 26.7614 12.168 25.9214 12.168C25.1214 12.168 24.4334 11.864 23.8574 11.256C23.2894 10.64 23.0054 9.888 23.0054 9C23.0054 8.12 23.2894 7.372 23.8574 6.756C24.4334 6.14 25.1214 5.832 25.9214 5.832C26.7614 5.832 27.4134 6.124 27.8774 6.708ZM25.0214 10.224C25.3334 10.536 25.7294 10.692 26.2094 10.692C26.6894 10.692 27.0854 10.536 27.3974 10.224C27.7174 9.904 27.8774 9.496 27.8774 9C27.8774 8.504 27.7174 8.1 27.3974 7.788C27.0854 7.468 26.6894 7.308 26.2094 7.308C25.7294 7.308 25.3334 7.468 25.0214 7.788C24.7094 8.1 24.5534 8.504 24.5534 9C24.5534 9.496 24.7094 9.904 25.0214 10.224ZM34.0571 3.432V4.92C33.2091 4.864 32.7851 5.204 32.7851 5.94V6H34.0571V7.488H32.7851V12H31.2371V7.488H30.3731V6H31.2371V5.94C31.2371 5.084 31.4731 4.44 31.9451 4.008C32.4251 3.568 33.1291 3.376 34.0571 3.432ZM38.3861 6V7.488H37.0301V9.984C37.0301 10.192 37.0821 10.344 37.1861 10.44C37.2901 10.536 37.4421 10.592 37.6421 10.608C37.8421 10.616 38.0901 10.612 38.3861 10.596V12C37.3381 12.12 36.5901 12.024 36.1421 11.712C35.7021 11.392 35.4821 10.816 35.4821 9.984V7.488H34.4381V6H35.4821V4.788L37.0301 4.32V6H38.3861Z" fill="#5557D4"/>
</svg>
