<svg width="20" height="20" viewBox="0 0 20 20" fill="none" xmlns="http://www.w3.org/2000/svg">
<path d="M19.4993 9.33204V16.5191C19.4993 18.1628 18.1622 19.5 16.5185 19.5H3.48096C1.83715 19.5 0.5 18.1626 0.5 16.5191V3.48091C0.5 1.83722 1.83712 0.500038 3.48081 0.500038H10.6677C10.9958 0.500038 11.2615 0.765738 11.2615 1.09378C11.2615 1.42182 10.9958 1.68752 10.6677 1.68752H3.48081C2.49184 1.68752 1.68745 2.49222 1.68745 3.48091V16.5187C1.68745 17.5077 2.49214 18.3121 3.48081 18.3121H16.5184C17.5073 18.3121 18.3117 17.5074 18.3117 16.5187V9.33166C18.3117 9.00363 18.5774 8.73792 18.9054 8.73792C19.2335 8.73822 19.4993 9.00392 19.4993 9.33192V9.33204ZM9.74244 6.61927L15.3484 1.0132C15.6792 0.68234 16.1204 0.5 16.5907 0.5C17.0609 0.5 17.502 0.682202 17.833 1.0132L18.9863 2.16652C19.6712 2.85148 19.6712 3.96606 18.9863 4.65102L13.3803 10.2575C13.3122 10.3256 13.2312 10.3733 13.1452 10.4014L13.1455 10.4018L8.98235 11.7667C8.92182 11.7867 8.85934 11.7964 8.79762 11.7964C8.64256 11.7964 8.49077 11.7355 8.37776 11.6225C8.21941 11.4643 8.1635 11.2304 8.23343 11.0179L9.59829 6.85467L9.59874 6.85496C9.62677 6.76863 9.67463 6.68797 9.74277 6.61953L9.74244 6.61927ZM9.72678 10.2727L11.8576 9.57404L10.4254 8.14189L9.72678 10.2727ZM11.0019 7.03915L12.9606 8.9979L18.147 3.8117C18.2537 3.70509 18.3124 3.5621 18.3124 3.40911C18.3124 3.25613 18.2538 3.11314 18.147 3.00653L16.9938 1.85321C16.7717 1.6312 16.4105 1.6312 16.1885 1.85321L11.0019 7.03915Z" fill="white" stroke="white" stroke-width="0.5"/>
</svg>
