<svg width="24" height="24" viewBox="0 0 24 24" fill="none" xmlns="http://www.w3.org/2000/svg">
<path d="M20.8771 11.6084C19.7845 10.1255 18.4723 8.83099 16.9892 7.77301L19.5258 5.14503C19.7812 4.88951 19.7883 4.46791 19.5417 4.20333C19.295 3.93876 18.8881 3.93142 18.6327 4.18694C18.6273 4.19229 18.6221 4.19775 18.6169 4.20333L15.8455 7.07173C14.6659 6.39914 13.3462 6.03346 12 6.00614C7.11433 6.00614 3.28359 11.3793 3.12286 11.6084C2.95905 11.8419 2.95905 12.1581 3.12286 12.3916C4.21543 13.8745 5.52764 15.169 7.01082 16.227L4.47413 18.855C4.21875 19.1105 4.21166 19.5321 4.45831 19.7967C4.70495 20.0612 5.11191 20.0686 5.36729 19.8131C5.37264 19.8077 5.37791 19.8022 5.38311 19.7967L8.15443 16.9283C9.33404 17.6009 10.6537 17.9665 12 17.9939C16.8856 17.9939 20.7164 12.6207 20.8771 12.3916C21.041 12.1581 21.041 11.8419 20.8771 11.6084ZM7.94552 15.2607C6.63595 14.3571 5.4621 13.2584 4.46192 12C5.4082 10.8126 8.47716 7.3381 12 7.3381C13.0023 7.35909 13.9877 7.60927 14.8858 8.07067L13.7698 9.22683C12.2932 8.21127 10.3015 8.62803 9.32124 10.1577C8.60715 11.272 8.60715 12.7212 9.32124 13.8355L7.94552 15.2607ZM13.7357 11.1442C13.8615 11.4107 13.9275 11.7033 13.9286 12C13.9286 13.1035 13.0651 13.998 12 13.998C11.7136 13.9968 11.4312 13.9285 11.1739 13.7982L13.7357 11.1442ZM10.2643 12.8558C10.1385 12.5893 10.0725 12.2967 10.0715 12C10.0715 10.8965 10.9349 10.002 12 10.002C12.2864 10.0032 12.5688 10.0715 12.8261 10.2018L10.2643 12.8558ZM12 16.6619C10.9977 16.6409 10.0124 16.3907 9.11426 15.9293L10.2303 14.7732C11.7068 15.7887 13.6985 15.372 14.6788 13.8423C15.3929 12.728 15.3929 11.2788 14.6788 10.1645L16.0545 8.73933C17.3641 9.64293 18.5379 10.7417 19.5381 12C18.5918 13.1875 15.5228 16.6619 12 16.6619Z" fill="#222222"/>
</svg>
