<svg width="128" height="128" viewBox="0 0 128 128" fill="none" xmlns="http://www.w3.org/2000/svg">
<circle cx="64" cy="64" r="64" fill="#F1F4F5"/>
<circle cx="108" cy="108" r="20" fill="#6A90FF"/>
<path d="M118.501 102.009C118.052 101.538 117.432 101.26 116.726 101.26H113.176V101.218C113.176 100.683 112.962 100.17 112.598 99.8275C112.235 99.4639 111.743 99.25 111.208 99.25H104.792C104.236 99.25 103.744 99.4639 103.38 99.8275C103.017 100.191 102.803 100.683 102.803 101.218V101.26H99.2738C98.568 101.26 97.9477 101.538 97.4986 102.009C97.0494 102.458 96.75 103.1 96.75 103.784V114.435C96.75 115.141 97.028 115.761 97.4986 116.211C97.9477 116.66 98.5894 116.959 99.2738 116.959H116.726C117.432 116.959 118.052 116.681 118.501 116.211C118.951 115.761 119.25 115.12 119.25 114.435V103.784C119.25 103.078 118.972 102.458 118.501 102.009ZM118.138 114.435H118.116C118.116 114.82 117.967 115.163 117.71 115.419C117.453 115.676 117.111 115.826 116.726 115.826H99.2738C98.8888 115.826 98.5466 115.676 98.2899 115.419C98.0333 115.163 97.8836 114.82 97.8836 114.435V103.784C97.8836 103.399 98.0333 103.057 98.2899 102.8C98.5466 102.544 98.8888 102.394 99.2738 102.394H103.402C103.722 102.394 103.979 102.137 103.979 101.817V101.196C103.979 100.961 104.065 100.747 104.214 100.597C104.364 100.448 104.578 100.362 104.813 100.362H111.208C111.443 100.362 111.657 100.448 111.807 100.597C111.957 100.747 112.042 100.961 112.042 101.196V101.817C112.042 102.137 112.299 102.394 112.62 102.394H116.748C117.133 102.394 117.475 102.544 117.731 102.8C117.988 103.057 118.138 103.399 118.138 103.784V114.435Z" fill="white" stroke="white" stroke-width="0.5"/>
<path d="M108 103.848C106.546 103.848 105.22 104.447 104.278 105.388C103.316 106.351 102.739 107.655 102.739 109.11C102.739 110.564 103.337 111.89 104.278 112.831C105.241 113.794 106.546 114.371 108 114.371C109.454 114.371 110.78 113.772 111.721 112.831C112.684 111.869 113.261 110.564 113.261 109.11C113.261 107.655 112.662 106.329 111.721 105.388C110.78 104.447 109.454 103.848 108 103.848ZM110.909 112.04C110.16 112.767 109.133 113.238 108 113.238C106.866 113.238 105.84 112.767 105.091 112.04C104.343 111.291 103.893 110.265 103.893 109.131C103.893 107.998 104.364 106.971 105.091 106.222C105.84 105.474 106.866 105.025 108 105.025C109.133 105.025 110.16 105.495 110.909 106.222C111.657 106.971 112.106 107.998 112.106 109.131C112.128 110.265 111.657 111.291 110.909 112.04Z" fill="white" stroke="white" stroke-width="0.5"/>
<path d="M115.615 105.923C116.193 105.923 116.663 105.454 116.663 104.875C116.663 104.296 116.193 103.827 115.615 103.827C115.036 103.827 114.567 104.296 114.567 104.875C114.567 105.454 115.036 105.923 115.615 105.923Z" fill="white" stroke="white" stroke-width="0.5"/>
</svg>
