<svg width="74" height="64" viewBox="0 0 74 64" fill="none" xmlns="http://www.w3.org/2000/svg">
<path d="M72.3404 23.5015C71.974 22.8976 71.4901 22.3749 70.9178 21.965C70.3456 21.5551 69.6969 21.2664 69.0109 21.1165C68.1814 20.9163 68.1543 20.899 68.1543 20.0046C68.1543 19.3104 68.13 18.6148 68.1543 17.922C68.3627 12.717 64.4579 8.96084 59.3937 9.0343C52.8261 9.12935 46.2429 9.0343 39.6681 9.07318C37.5265 9.08759 36.0374 8.18455 35.0366 6.33672C34.5825 5.49562 34.1057 4.6646 33.5803 3.86815C31.9498 1.39382 29.7368 -0.0205 26.7015 -0.000336621C21.9771 0.027028 17.2527 -0.000336423 12.5298 0.00830502C11.8652 -0.0139343 11.201 0.0617551 10.5581 0.232982C8.90196 0.749597 7.45049 1.78188 6.41175 3.18185C5.373 4.58183 4.80031 6.27761 4.77577 8.02613C4.75578 10.9455 5.02562 13.8533 5.107 16.7698C5.13699 17.8659 5.14698 18.9691 5.2355 20.0665C5.3026 20.9134 5.30975 20.9134 4.46738 21.0632C1.75469 21.5442 0.456875 22.8347 0 25.5006V27.3729C0.229865 30.1093 0.648193 32.8256 1.0194 35.5463C1.66284 40.2645 2.3115 44.9822 2.9654 49.6995C3.32805 52.3063 3.57933 54.9319 4.10759 57.5114C4.87286 61.2675 8.19519 63.9925 11.9444 63.9925C28.3005 63.9982 44.6562 63.9982 61.0113 63.9925C62.7089 63.9925 64.2194 63.4639 65.61 62.5047C67.8373 60.9665 68.7967 58.7197 69.1437 56.1287C70.1731 48.4451 71.2296 40.7643 72.2661 33.0849C72.5788 30.7632 72.99 28.4531 73.0029 26.0983C73.0043 25.178 72.8401 24.3081 72.3404 23.5015ZM11.706 3.62619C12.2545 3.47134 12.8227 3.39951 13.3921 3.41303C17.6411 3.41303 21.89 3.42456 26.1389 3.41303C28.202 3.40439 29.7283 4.26854 30.7634 6.07316C31.4772 7.31177 32.0983 8.61519 33.0149 9.71841C34.7053 11.7549 36.9112 12.6939 39.5254 12.6954C46.2433 12.6954 52.9613 12.6954 59.6793 12.6954C61.6895 12.6954 63.1986 13.4976 64.1295 15.3253C64.4978 16.0454 64.5778 16.8274 64.5849 17.621C64.5849 18.5788 64.5464 19.538 64.6006 20.4929C64.6363 21.1064 64.435 21.2317 63.8539 21.2303C55.4256 21.2101 46.9981 21.2058 38.5716 21.2173H36.7156C27.6952 21.2173 18.6743 21.2216 9.6529 21.2303C9.02613 21.2303 8.83339 21.0862 8.80912 20.4252C8.67396 16.646 8.50358 12.8682 8.29798 9.09191C8.15664 6.32232 9.35879 4.35639 11.706 3.62619ZM69.5949 26.5937C68.6107 33.8151 67.6284 41.0369 66.648 48.2593C66.2873 50.9112 65.918 53.5622 65.5401 56.2123C65.1646 58.8422 63.3242 60.4711 60.6858 60.5157C59.4994 60.5359 58.3129 60.5157 57.1265 60.5157C42.2904 60.5157 27.4553 60.5157 12.6212 60.5157C9.72858 60.5157 7.8868 58.9545 7.44848 56.1403C7.33141 55.3856 7.24146 54.6251 7.13724 53.8676C6.38815 48.4705 5.63955 43.0739 4.89142 37.6778C4.37743 33.962 3.86773 30.2452 3.36231 26.5275C3.21954 25.4934 3.87772 24.6868 4.89998 24.6033C5.18553 24.5803 5.47107 24.5875 5.75662 24.5875H67.1363C67.4219 24.5875 67.7074 24.5788 67.9929 24.5875C69.0766 24.6638 69.7376 25.4963 69.5949 26.5937Z" fill="#5D5FEF"/>
<path d="M36.4714 25.4563C31.9815 25.4582 27.6754 27.2557 24.4971 30.4549C21.3187 33.6541 19.5274 37.9939 19.5157 42.5232C19.4928 51.9294 27.1712 59.6836 36.4857 59.662C45.8416 59.639 53.4472 51.9337 53.4229 42.503C53.4104 37.9766 51.6188 33.6399 48.441 30.4442C45.2631 27.2486 40.9586 25.4548 36.4714 25.4563ZM36.4086 56.2688C28.8959 56.2083 22.8023 50.0427 22.8452 42.539C22.8505 40.717 23.214 38.9141 23.9148 37.2348C24.6155 35.5554 25.6396 34.033 26.9276 32.7557C28.2156 31.4783 29.7421 30.4714 31.4185 29.7932C33.095 29.1151 34.8881 28.7791 36.6942 28.8049C44.097 28.8812 50.2034 35.1635 50.1149 42.6153C50.0349 50.2299 43.9042 56.3279 36.4015 56.2688H36.4086Z" fill="#5D5FEF"/>
<path d="M30.028 47.4199C29.9938 46.8121 30.3136 46.3772 30.7105 45.9797C31.7099 44.9643 32.7093 43.9331 33.7387 42.9422C34.0871 42.6052 34.0485 42.4151 33.7244 42.0982C32.6665 41.0685 31.6342 40.0099 30.5977 38.9556C30.0894 38.4386 29.8838 37.8178 30.1337 37.1179C30.2288 36.8314 30.4031 36.5783 30.6361 36.3884C30.869 36.1986 31.151 36.0799 31.4486 36.0463C32.094 35.9412 32.5908 36.248 33.0306 36.6844C34.0542 37.7156 35.0836 38.7425 36.0831 39.7982C36.3829 40.115 36.5513 40.1309 36.8626 39.7982C37.8982 38.7103 38.9542 37.6436 40.0307 36.598C40.9673 35.6935 42.2366 35.8778 42.7677 36.9638C43.0847 37.6104 42.9219 38.3839 42.2823 39.0449C41.3542 40.0041 40.4262 40.9748 39.4525 41.8764C38.9214 42.3661 38.8586 42.6628 39.4311 43.1827C40.4533 44.1088 41.3957 45.1256 42.3679 46.1079C42.8805 46.6264 43.0718 47.2601 42.832 47.9456C42.6221 48.5534 42.1424 48.9048 41.5084 49.0085C40.8317 49.1209 40.322 48.7838 39.8694 48.3302C38.9271 47.3854 37.9662 46.4578 37.0596 45.4799C36.6313 45.0234 36.3715 44.9442 35.9074 45.454C34.9794 46.4766 33.9886 47.443 32.9963 48.4051C32.0554 49.3196 30.8875 49.2217 30.2565 48.2279C30.1133 47.9826 30.0346 47.7045 30.028 47.4199Z" fill="#5D5FEF"/>
</svg>
