<svg width="64" height="64" viewBox="0 0 64 64" fill="none" xmlns="http://www.w3.org/2000/svg">
<circle cx="32" cy="32" r="32" fill="#F8F9FF"/>
<path d="M25.7791 17.1718V16.734C25.7791 16.329 26.1329 16 26.5653 16H37.4347C37.8685 16 38.2209 16.329 38.2209 16.734V17.1718H41.995C43.6539 17.1718 45 18.4297 45 19.977V45.1931C45 46.7417 43.6539 48 41.995 48H22.0068C20.3462 48 19 46.7417 19 45.1931V19.977C19 18.4297 20.3461 17.1718 22.0068 17.1718H25.7791ZM25.7791 18.6398H22.0068C21.2156 18.6398 20.5725 19.2401 20.5725 19.977V45.1931C20.5725 45.9314 21.2156 46.532 22.0068 46.532H41.995C42.7859 46.532 43.4275 45.9314 43.4275 45.1931V19.977C43.4275 19.2401 42.7858 18.6398 41.995 18.6398H38.2209V19.4485C38.2209 19.8535 37.8685 20.1825 37.4347 20.1825H26.5653C26.1329 20.1825 25.7791 19.8535 25.7791 19.4485V18.6398ZM38.3611 40.4333H25.6389C25.205 40.4333 24.8526 40.1043 24.8526 39.6993C24.8526 39.294 25.205 38.9653 25.6389 38.9653H38.3611C38.795 38.9653 39.1474 39.294 39.1474 39.6993C39.1474 40.1043 38.795 40.4333 38.3611 40.4333ZM38.3611 37.208H25.6389C25.205 37.208 24.8526 36.8793 24.8526 36.474C24.8526 36.069 25.205 35.74 25.6389 35.74H38.3611C38.795 35.74 39.1474 36.069 39.1474 36.474C39.1474 36.8793 38.795 37.208 38.3611 37.208ZM30.297 27.4521C29.8301 27.0336 29.5374 26.4435 29.5374 25.7934C29.5374 24.5263 30.6431 23.4944 32.0001 23.4944C33.357 23.4944 34.4628 24.5263 34.4628 25.7934C34.4628 26.4435 34.1718 27.0337 33.7032 27.4521C35.4392 28.0891 36.672 29.6701 36.672 31.514C36.672 31.9193 36.32 32.2467 35.8858 32.2467H28.1157C27.6801 32.2467 27.3295 31.9193 27.3295 31.514C27.3295 29.6702 28.5609 28.0891 30.297 27.4521ZM29.0028 30.78H34.9989C34.65 29.5381 33.4376 28.6206 32.0002 28.6206C30.5628 28.6206 29.352 29.5382 29.0028 30.78ZM32.0001 24.9623C31.5094 24.9623 31.1099 25.3352 31.1099 25.7933C31.1099 26.2527 31.5094 26.6256 32.0001 26.6256C32.4908 26.6256 32.8903 26.2527 32.8903 25.7933C32.8903 25.3352 32.4908 24.9623 32.0001 24.9623ZM27.3517 18.7145H36.6467V17.4681H27.3517V18.7145Z" fill="#5557D4" stroke="#5557D4" stroke-width="0.3"/>
</svg>
