<svg width="24" height="24" viewBox="0 0 24 24" fill="none" xmlns="http://www.w3.org/2000/svg">
<path d="M2.95679 11.972L2.94282 11.996L2.95581 12.0205L3.10132 12.2954C3.10132 12.2954 3.10133 12.2955 3.10133 12.2955C4.99495 15.878 8.31853 18.05 12 18.05C15.6812 18.05 19.0106 15.9069 20.8987 12.2954C20.8987 12.2953 20.8988 12.2953 20.8988 12.2952L21.0442 12.0205L21.0567 11.9969L21.044 11.9734L20.8987 11.7046C20.8986 11.7045 20.8986 11.7044 20.8986 11.7043C19.0049 8.12192 15.6814 5.95 12 5.95C8.31891 5.95 4.9899 8.12158 3.11294 11.7037L2.95679 11.972ZM12 16.7758C8.87739 16.7758 6.00657 14.9984 4.33332 11.9971C6.00657 8.99586 8.87739 7.2185 12 7.2185C15.1222 7.2185 17.9598 9.00115 19.6608 11.9972C17.9598 14.9987 15.1167 16.7758 12 16.7758Z" fill="#222222" stroke="#222222" stroke-width="0.1"/>
<path d="M14.1253 11.987L14.0253 11.9874C14.0264 12.256 13.9742 12.5222 13.8717 12.7706C13.7691 13.0189 13.6183 13.2444 13.4279 13.4339C13.2376 13.6235 13.0115 13.7734 12.7627 13.875C12.514 13.9765 12.2477 14.0276 11.979 14.0254C11.5799 14.0213 11.191 13.8994 10.8609 13.6749C10.5309 13.4504 10.2745 13.1334 10.1241 12.7637C9.9736 12.394 9.93573 11.9881 10.0152 11.5969C10.0947 11.2057 10.288 10.8468 10.5708 10.5651C10.8536 10.2835 11.2134 10.0916 11.6048 10.0138C11.9963 9.93587 12.4021 9.9754 12.7712 10.1274C13.1403 10.2794 13.4562 10.537 13.6793 10.868C13.9025 11.1989 14.0229 11.5884 14.0253 11.9876L14.1253 11.987ZM14.1253 11.987C14.1265 12.2689 14.0717 12.5482 13.9641 12.8087C13.8565 13.0693 13.6982 13.3059 13.4985 13.5048C13.2988 13.7037 13.0615 13.861 12.8005 13.9676C12.5395 14.0741 12.26 14.1278 11.9781 14.1254C11.5593 14.1211 11.151 13.9931 10.8047 13.7576C10.4584 13.522 10.1893 13.1894 10.0314 12.8014C9.87355 12.4134 9.83381 11.9875 9.91721 11.577C10.0006 11.1665 10.2034 10.7898 10.5002 10.4943C10.797 10.1987 11.1745 9.9974 11.5853 9.91568C11.9961 9.83395 12.4219 9.87543 12.8092 10.0349C13.1966 10.1944 13.5281 10.4648 13.7623 10.8121C13.9964 11.1594 14.1227 11.5681 14.1253 11.987ZM11.9774 8.90008C11.3647 8.90455 10.767 9.0905 10.2599 9.43444C9.75282 9.77838 9.35902 10.2649 9.12825 10.8325C8.89749 11.4001 8.84011 12.0234 8.96337 12.6236C9.08663 13.2238 9.38499 13.774 9.82077 14.2048C10.2566 14.6355 10.8102 14.9274 11.4118 15.0437C12.0134 15.1599 12.636 15.0953 13.2009 14.858C13.7658 14.6206 14.2476 14.2212 14.5856 13.7101C14.9237 13.199 15.1026 12.5993 15.1 11.9865C15.0982 11.5787 15.016 11.1752 14.858 10.7991C14.7 10.4231 14.4693 10.082 14.1792 9.79524C13.8892 9.50852 13.5453 9.28186 13.1675 9.12825C12.7897 8.97464 12.3852 8.89711 11.9774 8.90008Z" fill="#222222" stroke="#222222" stroke-width="0.2"/>
</svg>
