<svg width="80" height="80" viewBox="0 0 80 80" fill="none" xmlns="http://www.w3.org/2000/svg">
<circle cx="48.086" cy="41.088" r="26.088" fill="#F1F1FF"/>
<path d="M57.333 70V63.3333C57.333 59.7971 55.9282 56.4057 53.4278 53.9052C50.9273 51.4048 47.5359 50 43.9997 50H20.6663C17.1301 50 13.7387 51.4048 11.2383 53.9052C8.73777 56.4057 7.33301 59.7971 7.33301 63.3333V70" stroke="#5557D4" stroke-width="4.5" stroke-linecap="round" stroke-linejoin="round"/>
<path d="M32.3333 36.6667C39.6971 36.6667 45.6667 30.6971 45.6667 23.3333C45.6667 15.9695 39.6971 10 32.3333 10C24.9695 10 19 15.9695 19 23.3333C19 30.6971 24.9695 36.6667 32.3333 36.6667Z" stroke="#5557D4" stroke-width="4.5" stroke-linecap="round" stroke-linejoin="round"/>
<path d="M56.6665 36.6667L63.3332 43.3333L76.6665 30" stroke="#5557D4" stroke-width="4.5" stroke-linecap="round" stroke-linejoin="round"/>
</svg>
