<svg width="40" height="40" viewBox="0 0 40 40" fill="none" xmlns="http://www.w3.org/2000/svg">
<circle cx="20" cy="20" r="20" fill="#6A90FF"/>
<path d="M23.5857 29.4999H16.2798C15.2143 29.4999 14.3331 28.7487 14.2748 27.7894L13.572 16.308C13.5651 16.1993 13.6085 16.093 13.6911 16.0139C13.7743 15.9351 13.8897 15.8901 14.0101 15.8901H25.8547C25.9753 15.8901 26.0906 15.9349 26.1737 16.0139C26.2565 16.093 26.2999 16.1993 26.2929 16.308L25.59 27.7894C25.5319 28.7487 24.6512 29.4999 23.5857 29.4999H23.5857ZM14.4744 16.6819L15.1514 27.7455C15.1844 28.2853 15.6801 28.7079 16.28 28.7079H23.5859C24.1854 28.7079 24.681 28.2853 24.714 27.7454L25.391 16.6818L14.4744 16.6819Z" fill="white" stroke="white" stroke-width="0.7"/>
<path d="M26.2762 16.6809H13.7238C13.0488 16.6809 12.5 16.1861 12.5 15.5777V14.5379C12.5 13.9297 13.0488 13.4348 13.7238 13.4348H26.2762C26.9512 13.4348 27.5 13.9296 27.5 14.5379V15.5777C27.4998 16.1861 26.951 16.6809 26.276 16.6809H26.2762ZM13.7238 14.2265C13.5335 14.2265 13.3782 14.3662 13.3782 14.538V15.5778C13.3782 15.7493 13.5335 15.8892 13.7238 15.8892H26.2762C26.47 15.8892 26.6218 15.7523 26.6218 15.5778V14.538C26.6218 14.3634 26.47 14.2265 26.2762 14.2265H13.7238Z" fill="white" stroke="white" stroke-width="0.7"/>
<path d="M21.4712 14.2267H18.5292C18.4036 14.2267 18.284 14.1782 18.2008 14.0935C17.8132 13.6994 17.5996 13.1917 17.5996 12.6639C17.5996 11.4709 18.6764 10.5 20 10.5C21.3237 10.5 22.4005 11.4709 22.4005 12.664C22.4005 13.1916 22.1874 13.6994 21.8002 14.0935C21.7164 14.1784 21.5968 14.2267 21.4712 14.2267ZM18.7423 13.4352H21.258C21.4296 13.2095 21.5221 12.9412 21.5221 12.6641C21.5223 11.9072 20.8392 11.2917 20 11.2917C19.1609 11.2917 18.4778 11.9074 18.4778 12.6641C18.4778 12.9413 18.5709 13.2097 18.7423 13.4352H18.7423Z" fill="white" stroke="white" stroke-width="0.7"/>
<path d="M21.5104 26.0884C21.2677 26.0884 21.0713 25.9113 21.0713 25.6926V20.5548C21.0713 20.3361 21.2677 20.1589 21.5104 20.1589C21.7531 20.1589 21.9495 20.3361 21.9495 20.5548V25.6926C21.9495 25.9112 21.7531 26.0885 21.5104 26.0885V26.0884Z" fill="white" stroke="white" stroke-width="0.7"/>
<path d="M18.2965 26.0884C18.0538 26.0884 17.8574 25.9113 17.8574 25.6926V20.5548C17.8574 20.3361 18.0538 20.1589 18.2965 20.1589C18.5393 20.1589 18.7356 20.3361 18.7356 20.5548V25.6926C18.7356 25.9112 18.5393 26.0885 18.2965 26.0885V26.0884Z" fill="white" stroke="white" stroke-width="0.7"/>
</svg>
