<svg width="40" height="40" viewBox="0 0 40 40" fill="none" xmlns="http://www.w3.org/2000/svg">
<rect width="40" height="40" rx="20" fill="#6A90FF"/>
<path d="M29.4993 19.332V26.5191C29.4993 28.1628 28.1622 29.5 26.5185 29.5H13.481C11.8372 29.5 10.5 28.1626 10.5 26.5191V13.4809C10.5 11.8372 11.8371 10.5 13.4808 10.5H20.6677C20.9958 10.5 21.2615 10.7657 21.2615 11.0938C21.2615 11.4218 20.9958 11.6875 20.6677 11.6875H13.4808C12.4918 11.6875 11.6875 12.4922 11.6875 13.4809V26.5187C11.6875 27.5077 12.4921 28.3121 13.4808 28.3121H26.5184C27.5073 28.3121 28.3117 27.5074 28.3117 26.5187V19.3317C28.3117 19.0036 28.5774 18.7379 28.9054 18.7379C29.2335 18.7382 29.4993 19.0039 29.4993 19.3319V19.332ZM19.7424 16.6193L25.3484 11.0132C25.6792 10.6823 26.1204 10.5 26.5907 10.5C27.0609 10.5 27.502 10.6822 27.833 11.0132L28.9863 12.1665C29.6712 12.8515 29.6712 13.9661 28.9863 14.651L23.3803 20.2575C23.3122 20.3256 23.2312 20.3733 23.1452 20.4014L23.1455 20.4018L18.9824 21.7667C18.9218 21.7867 18.8593 21.7964 18.7976 21.7964C18.6426 21.7964 18.4908 21.7355 18.3778 21.6225C18.2194 21.4643 18.1635 21.2304 18.2334 21.0179L19.5983 16.8547L19.5987 16.855C19.6268 16.7686 19.6746 16.688 19.7428 16.6195L19.7424 16.6193ZM19.7268 20.2727L21.8576 19.574L20.4254 18.1419L19.7268 20.2727ZM21.0019 17.0391L22.9606 18.9979L28.147 13.8117C28.2537 13.7051 28.3124 13.5621 28.3124 13.4091C28.3124 13.2561 28.2538 13.1131 28.147 13.0065L26.9938 11.8532C26.7717 11.6312 26.4105 11.6312 26.1885 11.8532L21.0019 17.0391Z" fill="white" stroke="white" stroke-width="0.5"/>
</svg>
