<svg width="22" height="22" viewBox="0 0 22 22" fill="none" xmlns="http://www.w3.org/2000/svg">
<g clip-path="url(#clip0_3063_1539)">
<path d="M21.9981 11.2053C21.9756 11.408 21.9185 11.601 21.7986 11.7663C21.7005 11.9011 21.5932 12.0312 21.4773 12.1511C21.1739 12.4638 20.8647 12.7708 20.5567 13.0784C18.2795 15.3519 12.591 21.021 12.0234 21.5809C11.8694 21.7329 11.6923 21.8487 11.4841 21.9115C11.3912 21.9391 11.2943 21.9547 11.202 21.9754C11.228 21.9829 11.2568 21.991 11.2857 21.9996H10.7821C10.8098 21.9933 10.8375 21.9864 10.8761 21.9772C10.8629 21.9685 10.8571 21.9628 10.8508 21.961C10.8369 21.9576 10.8225 21.9547 10.8087 21.9535C10.526 21.9328 10.2867 21.8141 10.0877 21.62C9.51604 21.0636 0.993136 12.5589 0.438824 12.0019C0.183299 11.745 0.0229463 11.4385 0.00275809 11.0751C-0.0214678 10.6465 0.113505 10.2733 0.423251 9.96396C2.60704 7.78435 4.7891 5.60359 6.97174 3.42283C6.9827 3.41189 6.99654 3.40382 7.01327 3.39057C7.08653 3.46488 8.68428 5.06445 9.41567 5.78964C9.48201 5.85531 9.49066 5.91003 9.46297 5.997C9.42087 6.12776 9.38049 6.26485 9.37357 6.40078C9.33838 7.09833 9.61929 7.64035 10.2261 7.98941C10.3795 8.07754 10.4205 8.16394 10.4199 8.32983C10.4141 10.233 10.4164 12.1361 10.4182 14.0392C10.4182 14.1008 10.4043 14.1348 10.3432 14.1659C10.0646 14.3059 9.82117 14.4977 9.65101 14.7569C9.40702 15.1296 9.31416 15.542 9.39375 15.989C9.52238 16.7055 10.1165 17.2787 10.8375 17.361C11.3976 17.425 11.8815 17.2602 12.2795 16.8547C12.7721 16.353 12.8927 15.5604 12.5731 14.9343C12.4168 14.6273 12.1688 14.4102 11.8902 14.2224C11.836 14.1861 11.8094 14.1463 11.81 14.083C11.81 13.9943 11.8077 13.9062 11.8071 13.8174C11.8071 11.9696 11.8071 10.1212 11.8071 8.27338C11.8071 8.25553 11.8088 8.23709 11.8106 8.20253C11.84 8.2273 11.8602 8.24228 11.8775 8.25956C11.9548 8.33847 12.0298 8.41911 12.1076 8.49687C12.5477 8.93752 12.9878 9.37759 13.4285 9.81766C13.6252 10.0141 13.8219 10.2099 14.0186 10.4063C14.0503 10.438 14.0855 10.4668 14.0624 10.5233C13.9436 10.8153 13.9275 11.1166 13.9834 11.4241C14.1541 12.3544 15.0557 12.9298 15.9463 12.7697C16.3431 12.6983 16.6748 12.5065 16.9338 12.2006C17.2464 11.832 17.3831 11.3999 17.3254 10.9213C17.2643 10.4173 17.0324 10.0095 16.5952 9.72665C16.2953 9.53253 15.9722 9.42021 15.6152 9.42943C15.4664 9.43346 15.3176 9.46975 15.1705 9.50143C15.1082 9.51468 15.0661 9.50892 15.0257 9.45996C14.9842 9.41042 14.938 9.36492 14.8925 9.31941C14.168 8.59422 13.4429 7.8696 12.7173 7.14556C12.6746 7.10351 12.6614 7.06377 12.6787 7.00559C12.76 6.73256 12.775 6.45608 12.7127 6.17672C12.6291 5.80059 12.4531 5.47284 12.1434 5.23956C11.6831 4.89222 11.1703 4.74649 10.5976 4.91584C10.541 4.93254 10.503 4.91757 10.4632 4.8784C9.66082 4.07487 8.8579 3.27192 8.05326 2.47127C8.00192 2.42 7.99961 2.39408 8.0521 2.34167C8.70505 1.69366 9.35165 1.03931 10.0075 0.394764C10.372 0.0364874 10.8185 -0.0666178 11.3128 0.0347593C11.6139 0.0963921 11.8527 0.270922 12.0667 0.484044C14.3797 2.79498 20.6842 9.09016 21.5229 9.92825C21.768 10.1736 21.9595 10.4484 21.9953 10.8072C21.9976 10.8274 22.0022 11.1667 21.9981 11.203V11.2053Z" fill="#F05133"/>
</g>
<defs>
<clipPath id="clip0_3063_1539">
<rect width="22" height="22" fill="white"/>
</clipPath>
</defs>
</svg>
