<svg width="20" height="20" viewBox="0 0 20 20" fill="none" xmlns="http://www.w3.org/2000/svg">
<path d="M20.0001 14.8469C19.9836 14.9308 19.9507 15.0147 19.9342 15.1153C19.6209 16.5748 18.4502 17.4974 16.9333 17.4974C12.8278 17.4974 8.7223 17.4974 4.61677 17.4974C3.94076 17.4974 3.28124 17.5142 2.60523 17.4639C1.20375 17.3464 0.0330972 16.1218 0.0166092 14.6959C-0.0163669 12.0622 0.0166092 9.41167 0.0166092 6.74438C0.0990494 6.79471 0.165002 6.82826 0.214466 6.86181C3.21529 8.72388 6.2326 10.586 9.21694 12.448C9.76104 12.7835 10.2392 12.7835 10.7833 12.448C13.7841 10.5692 16.8014 8.70711 19.8023 6.84504C19.8682 6.81149 19.9342 6.77794 19.9836 6.74438V14.8469H20.0001Z" fill="#ED5525"/>
<path d="M0.0985193 4.84856C0.296376 3.69105 1.40108 2.65098 2.55524 2.53355C2.76958 2.5 2.98393 2.5 3.19827 2.5C7.76546 2.5 12.3491 2.5 16.9163 2.5C18.2189 2.5 19.1587 3.10391 19.7358 4.31174C19.9666 4.81501 19.9666 4.83178 19.5049 5.11696C16.4052 7.04613 13.289 8.97531 10.1892 10.9045C10.0573 10.9884 9.95837 11.0051 9.82647 10.9045C6.62779 8.92498 3.44559 6.94548 0.246912 4.94921C0.197448 4.91566 0.131495 4.88211 0.0820312 4.84856H0.0985193Z" fill="#ED5525"/>
</svg>
