<svg width="107" height="137" viewBox="0 0 107 137" fill="none" xmlns="http://www.w3.org/2000/svg">
<path d="M53.4741 31.8194C62.0167 31.8194 68.9418 24.6964 68.9418 15.9097C68.9418 7.12301 62.0167 0 53.4741 0C44.9315 0 38.0063 7.12301 38.0063 15.9097C38.0063 24.6964 44.9315 31.8194 53.4741 31.8194Z" fill="#5557D4"/>
<path d="M53.3236 117.242C64.8193 116.281 72.483 111.48 77.2729 101.878C82.0628 91.7961 81.1048 82.1941 73.92 73.0721C66.7352 64.4302 55.7185 61.0695 45.6598 63.9501C34.6431 67.3109 27.4583 74.9925 26.9793 86.515C26.0213 101.398 26.9793 116.761 26.5003 131.645C26.5003 132.605 26.5003 133.565 26.5003 135.485C18.8365 131.165 13.0887 125.883 8.77782 118.682C-12.7766 84.5946 7.34086 41.3853 47.5757 36.5843C72.962 33.7037 96.9114 49.067 104.575 74.0323C112.239 98.5176 100.743 125.403 78.7099 136.446C77.7519 136.926 75.357 137.406 74.399 136.446C67.6932 130.204 60.9874 123.483 53.3236 116.281V117.242Z" fill="#5557D4"/>
</svg>
